<svg width="19" height="19" viewBox="0 0 19 19" fill="none" xmlns="http://www.w3.org/2000/svg">
<path d="M18.7447 5.52562C18.7284 4.74618 18.5794 3.97521 18.3042 3.24577C18.0627 2.62159 17.6937 2.05463 17.2208 1.58106C16.7479 1.10749 16.1814 0.737722 15.5576 0.495359C14.8276 0.221723 14.0564 0.0740474 13.277 0.0586313C12.2712 0.0112752 11.9518 0 9.3998 0C6.84783 0 6.52837 0.0112752 5.52562 0.0548729C4.7464 0.0700681 3.97544 0.217752 3.24577 0.491601C2.61742 0.727574 2.04853 1.09862 1.57929 1.57853C1.10215 2.04814 0.732585 2.61569 0.496111 3.24201C0.222232 3.97196 0.0743026 4.74313 0.0586313 5.52262C0.0112753 6.52837 0 6.84783 0 9.39604C0 11.9442 0.0112753 12.2675 0.0548729 13.2695C0.0687915 14.0501 0.215722 14.8226 0.489346 15.5538C0.731405 16.1786 1.10129 16.7458 1.5753 17.2193C2.04932 17.6928 2.61701 18.0621 3.24201 18.3035C3.97178 18.577 4.74268 18.7247 5.52186 18.7402C6.52386 18.7846 6.84332 18.7951 9.39529 18.7951C11.9473 18.7951 12.2667 18.7838 13.2687 18.7402C14.0479 18.7251 14.8189 18.5774 15.5486 18.3035C16.1732 18.0618 16.7405 17.6923 17.2141 17.2186C17.6878 16.745 18.0573 16.1777 18.299 15.5531C18.5724 14.8233 18.7201 14.0524 18.7357 13.2732C18.7801 12.2705 18.7906 11.9518 18.7906 9.3998C18.7906 6.84783 18.7883 6.52837 18.7447 5.52562ZM17.0519 13.2003C17.0458 13.7959 16.9364 14.386 16.7287 14.9442C16.5721 15.3496 16.3324 15.7178 16.0251 16.0251C15.7178 16.3324 15.3496 16.5721 14.9442 16.7287C14.3859 16.9361 13.7959 17.0454 13.2003 17.0519C12.2088 17.0963 11.9119 17.1068 9.40355 17.1068C6.89519 17.1068 6.59452 17.0955 5.6068 17.0519C5.01118 17.0459 4.42113 16.9365 3.8629 16.7287C3.45498 16.579 3.08604 16.3393 2.78348 16.0274C2.47239 15.7242 2.23281 15.3554 2.08216 14.948C1.87479 14.3896 1.76544 13.7996 1.75894 13.2041C1.71459 12.2126 1.70407 11.9149 1.70407 9.40731C1.70407 6.8997 1.71534 6.59827 1.75894 5.61056C1.765 5.01494 1.87436 4.42489 2.08216 3.86666C2.23185 3.45782 2.47302 3.08861 2.78724 2.78724C3.09036 2.47603 3.45913 2.23643 3.86666 2.08592C4.42502 1.8786 5.01499 1.76926 5.61056 1.7627C6.60203 1.71835 6.8997 1.70782 9.40731 1.70782C11.9149 1.70782 12.2164 1.7191 13.2041 1.7627C13.7997 1.76882 14.3897 1.87818 14.948 2.08592C15.3559 2.23558 15.7249 2.4753 16.0274 2.78724C16.3374 3.09074 16.576 3.45947 16.7257 3.86666C16.933 4.42502 17.0424 5.01499 17.0489 5.61056C17.0933 6.60203 17.1038 6.89895 17.1038 9.40731C17.1038 11.9157 17.0963 12.2088 17.0519 13.2003Z" fill="#FF2140"/>
<path d="M9.39935 4.5708C8.44445 4.5708 7.511 4.85396 6.71703 5.38448C5.92305 5.91499 5.30423 6.66903 4.9388 7.55124C4.57338 8.43346 4.47777 9.40422 4.66406 10.3408C4.85035 11.2773 5.31018 12.1376 5.9854 12.8128C6.66061 13.488 7.52089 13.9479 8.45744 14.1342C9.394 14.3204 10.3648 14.2248 11.247 13.8594C12.1292 13.494 12.8832 12.8752 13.4137 12.0812C13.9443 11.2872 14.2274 10.3538 14.2274 9.39887C14.227 8.11851 13.7182 6.8907 12.8129 5.98535C11.9075 5.07999 10.6797 4.5712 9.39935 4.5708ZM9.39935 12.5311C8.77985 12.5311 8.17426 12.3474 7.65916 12.0033C7.14406 11.6591 6.74259 11.1699 6.50552 10.5975C6.26844 10.0252 6.20641 9.39539 6.32727 8.78779C6.44813 8.18019 6.74645 7.62207 7.1845 7.18402C7.62256 6.74596 8.18068 6.44764 8.78828 6.32678C9.39588 6.20592 10.0257 6.26796 10.598 6.50503C11.1704 6.7421 11.6596 7.14357 12.0037 7.65867C12.3479 8.17377 12.5316 8.77936 12.5316 9.39887C12.5316 10.2296 12.2016 11.0263 11.6142 11.6137C11.0268 12.2011 10.2301 12.5311 9.39935 12.5311Z" fill="#FF2140"/>
<path d="M15.5471 4.37899C15.5471 4.60199 15.4809 4.81999 15.357 5.00541C15.2331 5.19083 15.057 5.33535 14.851 5.42069C14.645 5.50603 14.4183 5.52835 14.1996 5.48485C13.9808 5.44134 13.7799 5.33396 13.6222 5.17627C13.4646 5.01858 13.3572 4.81768 13.3137 4.59896C13.2702 4.38024 13.2925 4.15354 13.3778 3.94751C13.4632 3.74148 13.6077 3.56538 13.7931 3.44149C13.9785 3.3176 14.1965 3.25146 14.4195 3.25146C14.7186 3.25146 15.0054 3.37026 15.2168 3.58171C15.4283 3.79316 15.5471 4.07995 15.5471 4.37899Z" fill="#FF2140"/>
</svg>
