<svg width="27" height="15" viewBox="0 0 27 15" fill="none" xmlns="http://www.w3.org/2000/svg">
<path d="M25.8796 13.0814C25.8518 13.0248 25.8208 12.9696 25.7868 12.9162C25.0764 11.826 24.2047 10.8439 23.1998 10.0015L23.1729 9.97535L23.159 9.9627L23.1451 9.94915H23.1312C22.5536 9.41265 22.1878 9.05137 22.0338 8.86531C21.9024 8.72246 21.8153 8.54629 21.7824 8.35719C21.7496 8.16809 21.7724 7.97381 21.8483 7.79683C22.1911 7.18074 22.5996 6.60159 23.0672 6.06901C23.4382 5.60296 23.7316 5.22934 23.9474 4.94814C25.5107 2.92678 26.1872 1.63371 25.977 1.06891L25.8963 0.937035C25.7827 0.824415 25.6364 0.748442 25.477 0.719367C25.1933 0.650778 24.8981 0.639708 24.6097 0.686849L20.7139 0.713041C20.6247 0.691159 20.5311 0.693348 20.4431 0.719367L20.2668 0.759107L20.1991 0.792527L20.1453 0.832267C20.0877 0.869632 20.0372 0.916379 19.996 0.970456C19.9393 1.04059 19.8937 1.11851 19.8605 1.20167C19.4559 2.22516 18.9715 3.21705 18.4116 4.16868C18.0777 4.71361 17.7707 5.18629 17.4906 5.5867C17.2811 5.89941 17.0456 6.19484 16.7865 6.47003C16.626 6.63217 16.454 6.78307 16.2717 6.92163C16.1184 7.03603 16.0012 7.08451 15.9202 7.06705C15.8385 7.04898 15.7625 7.03182 15.6901 7.01466C15.5622 6.93371 15.4575 6.82245 15.3859 6.69132C15.3014 6.53069 15.2485 6.35607 15.2301 6.17649C15.2028 5.96996 15.1871 5.79203 15.1827 5.6427C15.1784 5.49337 15.1806 5.28263 15.1892 5.01046C15.1985 4.7377 15.2032 4.55314 15.2032 4.4568C15.2032 4.12262 15.21 3.76134 15.2236 3.37296C15.2372 2.98459 15.2486 2.67479 15.2579 2.44357C15.2672 2.21476 15.2718 1.97391 15.2718 1.72102C15.2764 1.52008 15.2605 1.31919 15.2245 1.12129C15.193 0.976111 15.1454 0.834684 15.0826 0.699494C15.0243 0.569438 14.9274 0.459342 14.8043 0.383376C14.6638 0.30034 14.5107 0.239382 14.3507 0.202739C13.7489 0.0850594 13.1363 0.027556 12.5224 0.0311286C11.4311 -0.059259 10.332 0.0476085 9.28055 0.346344C9.08582 0.446853 8.9114 0.580888 8.76575 0.741948C8.60311 0.935233 8.58054 1.0406 8.69803 1.05807C8.91907 1.07304 9.13479 1.13094 9.33249 1.22835C9.53019 1.32577 9.70586 1.46072 9.84916 1.62527L9.93079 1.78334C10.0186 1.97726 10.0809 2.18118 10.1163 2.39028C10.1829 2.70758 10.2235 3.02953 10.2378 3.35309C10.2832 3.90165 10.2832 4.45287 10.2378 5.00143C10.1927 5.45845 10.1497 5.81461 10.1089 6.06991C10.0796 6.28439 10.017 6.49331 9.92337 6.68951C9.87557 6.78938 9.82136 6.88621 9.76104 6.97944C9.7434 7.00575 9.72035 7.0282 9.69333 7.04537C9.57671 7.08907 9.45281 7.11142 9.32786 7.1113C9.15829 7.09721 8.99685 7.03433 8.86407 6.93066C8.65677 6.78367 8.46808 6.61329 8.30196 6.42307C8.05816 6.13991 7.83852 5.83784 7.64523 5.51987C7.40159 5.1333 7.14867 4.67628 6.88647 4.14881L6.66942 3.76586C6.53399 3.51958 6.34847 3.16131 6.11287 2.69105C5.87726 2.22078 5.66949 1.76587 5.48954 1.32631C5.42878 1.15637 5.31534 1.009 5.16488 0.904524L5.10644 0.861167C5.03951 0.81463 4.96652 0.776967 4.88939 0.74917C4.78915 0.709229 4.6846 0.680444 4.57772 0.663365L0.867405 0.689564C0.727677 0.672684 0.585841 0.686469 0.4523 0.729917C0.318758 0.773365 0.196898 0.845374 0.0956585 0.940653L0.0418589 1.02013C0.00992928 1.08603 -0.0041223 1.15879 0.00104541 1.23148C0.00674085 1.35383 0.034366 1.47426 0.0826724 1.58734C0.624379 2.82713 1.21339 4.02297 1.84971 5.17484C2.48603 6.32672 3.03918 7.25431 3.50915 7.9576C3.97851 8.66089 4.45714 9.32324 4.94505 9.94464C5.43295 10.566 5.75575 10.9662 5.91344 11.145C6.07175 11.3208 6.19542 11.4527 6.28447 11.5406L6.62304 11.8567C6.92078 12.133 7.23988 12.3867 7.57752 12.6154C8.02587 12.9284 8.49026 13.219 8.96889 13.4861C9.52964 13.7918 10.1281 14.0267 10.7498 14.1852C11.3926 14.3616 12.0605 14.4352 12.7274 14.4028H14.2895C14.5575 14.3964 14.8134 14.293 15.0074 14.1129L15.0612 14.047C15.1074 13.9711 15.1415 13.8889 15.1623 13.8031C15.1949 13.6853 15.2108 13.5638 15.2096 13.4418C15.1975 13.0991 15.2271 12.7562 15.2978 12.4203C15.3425 12.1828 15.4198 11.9522 15.5278 11.7348C15.6053 11.5921 15.7033 11.461 15.8191 11.3455C15.8872 11.2722 15.9649 11.2079 16.05 11.154C16.0848 11.1364 16.1208 11.121 16.1576 11.108C16.2927 11.0798 16.4328 11.0837 16.566 11.1194C16.6992 11.155 16.8216 11.2215 16.9229 11.313C17.2306 11.5328 17.5083 11.7899 17.7494 12.078C18.0066 12.3791 18.3158 12.7196 18.6769 13.0995C18.9629 13.4114 19.2805 13.6943 19.6249 13.944L19.8958 14.1021C20.1184 14.225 20.355 14.3223 20.6007 14.392C20.8435 14.4762 21.1043 14.4989 21.3586 14.4579L24.8259 14.4055C25.1024 14.4199 25.3779 14.3629 25.6245 14.2403C25.7811 14.167 25.9025 14.0375 25.9631 13.879C25.9998 13.7308 26.002 13.5765 25.9696 13.4274C25.9525 13.3092 25.9223 13.1933 25.8796 13.0814Z" fill="#FF2140"/>
</svg>
