<?xml version="1.0" encoding="utf-8"?><svg viewBox="0 0 800 800" xmlns="http://www.w3.org/2000/svg" xmlns:xlink="http://www.w3.org/1999/xlink"><style>:root>svg{display:none}:root>svg:target{display:block}</style><svg viewBox="0 0 502.664 502.664" id="icon" xmlns="http://www.w3.org/2000/svg"><path d="M153.821 358.226L0 274.337v-46.463l153.821-83.414v54.574L46.636 250.523l107.185 53.431v54.272zm26.273 29.358L282.103 115.08h32.227L212.084 387.584h-31.99zm168.749-29.358v-54.272l107.164-52.999-107.164-52.59v-53.927l153.821 83.522v46.183l-153.821 84.083z"/></svg><svg viewBox="0 0 19 19" id="instagram" xmlns="http://www.w3.org/2000/svg"><path d="M18.745 5.526a6.865 6.865 0 00-.44-2.28 4.815 4.815 0 00-2.747-2.75 6.886 6.886 0 00-2.281-.437C12.271.01 11.952 0 9.4 0 6.848 0 6.528.011 5.526.055a6.87 6.87 0 00-2.28.437 4.585 4.585 0 00-1.667 1.087A4.627 4.627 0 00.496 3.242a6.886 6.886 0 00-.437 2.28C.01 6.529 0 6.849 0 9.397s.011 2.871.055 3.873a6.86 6.86 0 00.434 2.285 4.81 4.81 0 002.753 2.75c.73.273 1.5.42 2.28.436 1.002.045 1.321.055 3.873.055 2.552 0 2.872-.011 3.874-.055a6.866 6.866 0 002.28-.436 4.81 4.81 0 002.75-2.75 6.92 6.92 0 00.437-2.28c.044-1.003.055-1.322.055-3.874s-.003-2.872-.046-3.874zM17.052 13.2a5.152 5.152 0 01-.323 1.744 3.117 3.117 0 01-1.785 1.785 5.17 5.17 0 01-1.744.323c-.991.044-1.288.055-3.796.055-2.509 0-2.81-.011-3.797-.055a5.148 5.148 0 01-1.744-.323 2.892 2.892 0 01-1.08-.702 2.923 2.923 0 01-.7-1.079 5.172 5.172 0 01-.324-1.744c-.044-.991-.055-1.29-.055-3.797s.011-2.809.055-3.796a5.149 5.149 0 01.323-1.744c.15-.41.391-.778.705-1.08.303-.311.672-.55 1.08-.701a5.174 5.174 0 011.744-.323c.991-.045 1.289-.055 3.796-.055 2.508 0 2.81.011 3.797.055a5.152 5.152 0 011.744.323c.408.15.777.39 1.08.701.31.304.548.672.698 1.08a5.19 5.19 0 01.323 1.744c.044.991.055 1.288.055 3.796 0 2.509-.008 2.802-.052 3.793z"/><path d="M9.4 4.57a4.828 4.828 0 100 9.657 4.828 4.828 0 000-9.656zm0 7.961a3.133 3.133 0 110-6.266 3.133 3.133 0 010 6.266zm6.147-8.152a1.128 1.128 0 11-2.255 0 1.128 1.128 0 012.255 0z"/></svg><svg viewBox="0 0 19 16" id="telegram" xmlns="http://www.w3.org/2000/svg"><path d="M7.089 9.919l-.297 4.202a1.045 1.045 0 00.835-.404l2.004-1.915 4.154 3.04c.761.426 1.3.202 1.503-.7L18.012 1.37c.242-1.126-.407-1.566-1.15-1.29L.84 6.211C-.255 6.637-.238 7.247.65 7.523l4.097 1.274 9.516-5.954c.448-.297.854-.133.52.164L7.089 9.919z"/></svg><svg viewBox="0 0 27 15" id="vk" xmlns="http://www.w3.org/2000/svg"><path d="M25.88 13.081a1.718 1.718 0 00-.093-.165 13.23 13.23 0 00-2.587-2.915l-.027-.026-.014-.012-.014-.014h-.014c-.577-.536-.943-.898-1.097-1.084a.99.99 0 01-.186-1.068 9.956 9.956 0 011.22-1.728c.37-.466.664-.84.88-1.12 1.563-2.022 2.24-3.315 2.029-3.88l-.08-.132a.799.799 0 00-.42-.218 2.19 2.19 0 00-.867-.032l-3.896.026a.52.52 0 00-.27.006l-.177.04-.068.034-.054.04a.594.594 0 00-.149.137.896.896 0 00-.136.232 21.274 21.274 0 01-1.448 2.967 28.626 28.626 0 01-.921 1.418c-.21.312-.445.608-.704.883a5.032 5.032 0 01-.515.452c-.154.114-.27.163-.352.145a15.754 15.754 0 01-.23-.052.886.886 0 01-.304-.324 1.416 1.416 0 01-.156-.515 5.36 5.36 0 01-.047-.533c-.005-.15-.002-.36.006-.633.01-.272.014-.457.014-.553 0-.334.007-.696.02-1.084l.035-.93c.01-.228.014-.47.014-.722a2.97 2.97 0 00-.047-.6A2.016 2.016 0 0015.083.7a.717.717 0 00-.279-.316 1.589 1.589 0 00-.453-.18A9.247 9.247 0 0012.522.03a9.114 9.114 0 00-3.241.315 1.8 1.8 0 00-.515.396c-.163.193-.185.299-.068.316a1.666 1.666 0 011.151.567l.082.158c.088.194.15.398.185.607.067.318.107.64.122.963.045.549.045 1.1 0 1.648-.045.457-.088.814-.13 1.069a2.062 2.062 0 01-.185.62 2.6 2.6 0 01-.162.29.23.23 0 01-.068.065 1.04 1.04 0 01-.365.066.871.871 0 01-.464-.18 3.215 3.215 0 01-.562-.508 6.79 6.79 0 01-.657-.903 15.692 15.692 0 01-.759-1.371l-.217-.383c-.135-.246-.32-.605-.556-1.075-.236-.47-.444-.925-.623-1.365a.871.871 0 00-.325-.421L5.106.86A.936.936 0 004.89.75a1.46 1.46 0 00-.312-.087L.868.69a.967.967 0 00-.772.25l-.054.08A.417.417 0 000 1.231c.006.123.033.243.082.356A43.108 43.108 0 001.85 5.175c.636 1.152 1.19 2.08 1.66 2.783.469.703.947 1.365 1.435 1.987.488.621.81 1.021.968 1.2.159.176.282.308.371.396l.339.316c.298.276.617.53.955.758.448.313.912.604 1.39.871.562.306 1.16.54 1.782.7.643.176 1.31.25 1.977.217h1.563c.268-.007.523-.11.717-.29l.054-.066a.858.858 0 00.101-.244c.033-.118.049-.24.048-.361a4.233 4.233 0 01.088-1.022c.044-.237.122-.468.23-.685a1.674 1.674 0 01.522-.581.911.911 0 01.108-.046.882.882 0 01.765.205c.308.22.585.477.826.765.258.301.567.642.928 1.022a6.4 6.4 0 00.948.844l.27.158c.223.123.46.22.706.29.242.084.503.107.758.066l3.467-.053a1.6 1.6 0 00.799-.165.661.661 0 00.338-.361.997.997 0 00.007-.452 1.621 1.621 0 00-.09-.346z"/></svg><svg viewBox="0 0 24 24" id="whatsapp" xmlns="http://www.w3.org/2000/svg"><path fill-rule="evenodd" clip-rule="evenodd" d="M3.5 12a8.5 8.5 0 118.5 8.5 8.455 8.455 0 01-4.542-1.314 1 1 0 00-.821-.113l-2.88.859 1.085-2.537a1 1 0 00-.07-.92A8.456 8.456 0 013.5 12zM12 1.5C6.201 1.5 1.5 6.201 1.5 12c0 1.838.473 3.568 1.305 5.073L1.08 21.107a1 1 0 001.206 1.351l4.5-1.342A10.456 10.456 0 0012 22.5c5.799 0 10.5-4.701 10.5-10.5S17.799 1.5 12 1.5zm2.293 12.682l-1.315.926A9.338 9.338 0 0111 13.585a10.202 10.202 0 01-1.624-2.114l.835-.709a1 1 0 00.236-1.232l-1.064-2a1 1 0 00-1.54-.283l-.316.275c-.759.662-1.208 1.75-.836 2.852A12.049 12.049 0 009.586 15c1.813 1.813 3.655 2.527 4.733 2.805.868.223 1.689-.076 2.268-.548l.591-.482a1 1 0 00-.12-1.634l-1.678-1a1 1 0 00-1.088.041z"/></svg></svg>